<svg xmlns="http://www.w3.org/2000/svg" xmlns:xlink="http://www.w3.org/1999/xlink" xmlns:lucid="lucid" width="2291.12" height="2110"><g transform="translate(121.1182586383884 270)" lucid:page-tab-id="0_0"><path d="M-1806.87-1258.83h5484.6v3840.5h-5484.6z" fill="#fff"/><path d="M380 386c0-3.3 2.7-6 6-6h268c3.3 0 6 2.7 6 6v489.42c0 3.3-2.7 6-6 6H386c-3.3 0-6-2.7-6-6z" stroke="#5e5e5e" stroke-width="3" fill="#f5b5c8"/><use xlink:href="#a" transform="matrix(1,0,0,1,385,385) translate(3.1975308641975175 207.03472222222223)"/><use xlink:href="#b" transform="matrix(1,0,0,1,385,385) translate(147.48765432098764 207.03472222222223)"/><use xlink:href="#c" transform="matrix(1,0,0,1,385,385) translate(9.441358024691354 252.36805555555557)"/><use xlink:href="#d" transform="matrix(1,0,0,1,385,385) translate(164.2253086419753 252.36805555555557)"/><use xlink:href="#e" transform="matrix(1,0,0,1,385,385) translate(55.456790123456784 297.7013888888889)"/><path d="M1080 386c0-3.3 2.7-6 6-6h288c3.3 0 6 2.7 6 6v488c0 3.3-2.7 6-6 6h-288c-3.3 0-6-2.7-6-6z" stroke="#5e5e5e" stroke-width="3" fill="#fcc438"/><use xlink:href="#f" transform="matrix(1,0,0,1,1085,385) translate(36.388888888888886 208.09375)"/><use xlink:href="#g" transform="matrix(1,0,0,1,1085,385) translate(100.83333333333333 208.09375)"/><use xlink:href="#h" transform="matrix(1,0,0,1,1085,385) translate(94 256.09375)"/><use xlink:href="#i" transform="matrix(1,0,0,1,1085,385) translate(79.94444444444446 304.09375)"/><path d="M1075 6c0-3.3 2.7-6 6-6h188c3.3 0 6 2.7 6 6v208c0 3.3-2.7 6-6 6h-188c-3.3 0-6-2.7-6-6z" stroke="#5e5e5e" stroke-width="3" fill="#fff"/><use xlink:href="#j" transform="matrix(1,0,0,1,1080,5) translate(0.27777777777777146 92.29166666666667)"/><use xlink:href="#k" transform="matrix(1,0,0,1,1080,5) translate(10.092592592592595 132.29166666666669)"/><use xlink:href="#l" transform="matrix(1,0,0,1,1080,5) translate(63.61111111111112 132.29166666666669)"/><path d="M480 6c0-3.3 2.7-6 6-6h188c3.3 0 6 2.7 6 6v208c0 3.3-2.7 6-6 6H486c-3.3 0-6-2.7-6-6z" stroke="#5e5e5e" stroke-width="3" fill="#fff"/><use xlink:href="#m" transform="matrix(1,0,0,1,485,5) translate(6.592592592592581 90.51388888888889)"/><use xlink:href="#n" transform="matrix(1,0,0,1,485,5) translate(15.753086419753089 127.84722222222223)"/><use xlink:href="#o" transform="matrix(1,0,0,1,485,5) translate(65.70370370370371 127.84722222222223)"/><path d="M940 986c0-3.3 2.7-6 6-6h228c3.3 0 6 2.7 6 6v108c0 3.3-2.7 6-6 6H946c-3.3 0-6-2.7-6-6z" stroke="#5e5e5e" stroke-width="3" fill="#fff"/><use xlink:href="#p" transform="matrix(1,0,0,1,945,985) translate(24.222222222222257 62.937499999999986)"/><use xlink:href="#q" transform="matrix(1,0,0,1,945,985) translate(117.22222222222223 62.937499999999986)"/><path d="M560 986c0-3.3 2.7-6 6-6h228c3.3 0 6 2.7 6 6v108c0 3.3-2.7 6-6 6H566c-3.3 0-6-2.7-6-6z" stroke="#5e5e5e" stroke-width="3" fill="#fff"/><use xlink:href="#r" transform="matrix(1,0,0,1,565,985) translate(19.17901234567904 64.71527777777777)"/><use xlink:href="#s" transform="matrix(1,0,0,1,565,985) translate(117.34567901234567 64.71527777777777)"/><path d="M440 696c0-3.3 2.7-6 6-6h148c3.3 0 6 2.7 6 6v68c0 3.3-2.7 6-6 6H446c-3.3 0-6-2.7-6-6z" stroke="#5e5e5e" stroke-width="3" fill="#fff"/><use xlink:href="#t" transform="matrix(1,0,0,1,445,695) translate(27.808641975308646 39.65277777777778)"/><path d="M1148.73 706c0-3.3 2.68-6 6-6h150.54c3.32 0 6 2.7 6 6v68c0 3.3-2.68 6-6 6h-150.54c-3.32 0-6-2.7-6-6z" stroke="#5e5e5e" stroke-width="3" fill="#fff"/><use xlink:href="#t" transform="matrix(1,0,0,1,1153.7267692001974,705) translate(29.308641975308646 39.65277777777778)"/><path d="M600-250h140v160H600z" fill="none"/><path d="M600-170h56m0 32v-64m14 48v-32m14 48v-64m14 48v-32m0 16h42" stroke="#5e5e5e" stroke-width="3" fill="#fff"/><use xlink:href="#u" transform="matrix(1,0,0,1,600,-250) translate(22.03703703703706 37.333333333333314)"/><path d="M740-170" stroke="#5e5e5e" stroke-width="2" fill="none"/><path fill="#5e5e5e"/><path fill="#5e5e5e"/><path d="M1149 881.42c3.3 0 6 2.68 6 6V929c0 3.3 2.7 6 6 6h13c3.3 0 4 1.8 1.54 4l-41.08 37c-2.46 2.2-6.46 2.2-8.92 0l-41.08-37c-2.46-2.2-1.77-4 1.54-4h13c3.3 0 6-2.7 6-6v-41.58c0-3.32 2.7-6 6-6z" stroke="#5e5e5e" stroke-width="3" fill="#fff"/><use xlink:href="#v" transform="matrix(1,0,0,1,1085,886.4173228346457) translate(24.301296296296297 49.14583333333333)"/><path d="M186.28 502.54H343.05" stroke="#5e5e5e" stroke-width="10" fill="none"/><path d="M186.4 507.54h-7.45l.53-1.04 1.78-3.9 1.56-3.97.36-1.1h3.22z" fill="#5e5e5e"/><path d="M362.32 502.54l-14.27 4.64v-9.27z" stroke="#5e5e5e" stroke-width="10" fill="#5e5e5e"/><path d="M192.88 650h150.17" stroke="#5e5e5e" stroke-width="10" fill="none"/><path d="M193 655h-5.28l.06-.8.1-4.2-.02-1.76-.14-3.24h5.3z" fill="#5e5e5e"/><path d="M362.32 650l-14.27 4.64v-9.28z" stroke="#5e5e5e" stroke-width="10" fill="#5e5e5e"/><path d="M1670 756c0-3.3 2.7-6 6-6h468c3.3 0 6 2.7 6 6v528c0 3.3-2.7 6-6 6h-468c-3.3 0-6-2.7-6-6z" fill="#ccc" fill-opacity=".34"/><path d="M1754 750h78m39 0h78m39 0h78m39 0h39l3.03.82 2.15 2.15.82 3.03v44m0 44v88m0 44v88m0 44v88m0 44v44l-.82 3.03-2.15 2.15-3.03.82h-39m-39 0h-78m-39 0h-78m-39 0h-78m-39 0h-39l-3.03-.82-2.15-2.15-.82-3.03v-44m0-44v-88m0-44v-88m0-44v-88m0-44v-44l.82-3.03 2.15-2.15 3.03-.82h39" stroke="#5e5e5e" stroke-width="8" fill="none"/><use xlink:href="#w" transform="matrix(1,0,0,1,1675,755) translate(27.938271604938365 28.444444444444436)"/><use xlink:href="#x" transform="matrix(1,0,0,1,1675,755) translate(116.72839506172846 28.444444444444436)"/><use xlink:href="#y" transform="matrix(1,0,0,1,1675,755) translate(146.35802469135808 28.444444444444436)"/><use xlink:href="#z" transform="matrix(1,0,0,1,1675,755) translate(280.58024691358025 28.444444444444436)"/><use xlink:href="#A" transform="matrix(1,0,0,1,1675,755) translate(323.8395061728395 28.444444444444436)"/><path d="M1793.5 850H1586c-3.3 0-6-2.7-6-6v-83.94c0-3.3-2.7-6-6-6h-157.05" stroke="#5e5e5e" stroke-width="10" fill="none"/><path d="M1798.5 855h-5.13v-10h5.13z" fill="#5e5e5e"/><path d="M1397.68 754.06l14.27-4.63v9.27z" stroke="#5e5e5e" stroke-width="10" fill="#5e5e5e"/><path d="M1386.5 783.38H1544c3.3 0 6 2.7 6 6V959c0 3.3 2.7 6 6 6h207.05" stroke="#5e5e5e" stroke-width="10" fill="none"/><path d="M1386.63 788.38h-5.13v-10h5.13z" fill="#5e5e5e"/><path d="M1782.32 965l-14.27 4.64v-9.28z" stroke="#5e5e5e" stroke-width="10" fill="#5e5e5e"/><path d="M1529.62 821.5l4.04 4.03 1.34 4.95V1066l.3 1.1.26.28 1.1.3h226.4v10h-227.72l-4.96-1.34-4.04-4.04-1.34-4.96V831.8l-.3-1.1-.26-.26-1.1-.3H1386.5v-10h138.16z" fill="#5e5e5e"/><path d="M1386.63 830.15h-5.13v-10h5.13zM1782.32 1072.68l-14.27 4.63v-9.26z" fill="#5e5e5e"/><path d="M1798.5 1072.68l-35.45 11.5v-23.02z" fill="#5e5e5e"/><use xlink:href="#B" transform="matrix(1,0,0,1,1547.8350734058986,1062.0104986876638) translate(0 14.222222222222223)"/><path d="M1486.32 397.4h-69.37v-10h69.37zm117.18 0h-44.72v-10h44.72z" fill="#5e5e5e"/><path d="M1608.5 397.4h-5.13v-10h5.13zM1411.95 397.03l-14.27-4.64 14.27-4.64z" fill="#5e5e5e"/><path d="M1416.95 403.9l-35.45-11.5 35.45-11.53z" fill="#5e5e5e"/><use xlink:href="#C" transform="matrix(1,0,0,1,1486.3174654752381,364.39029196580884) translate(0 37.333333333333314)"/><path d="M1603.5 514.16h-186.55" stroke="#5e5e5e" stroke-width="10" fill="none"/><path d="M1608.5 519.16h-5.13v-10h5.13z" fill="#5e5e5e"/><path d="M1397.68 514.16l14.27-4.64v9.27z" stroke="#5e5e5e" stroke-width="10" fill="#5e5e5e"/><path d="M1386.5 634.16h186.55" stroke="#5e5e5e" stroke-width="10" fill="none"/><path d="M1386.63 639.16h-5.13v-10h5.13z" fill="#5e5e5e"/><path d="M1592.32 634.16l-14.27 4.63v-9.28z" stroke="#5e5e5e" stroke-width="10" fill="#5e5e5e"/><path d="M1580 286c0-3.3 2.7-6 6-6h268c3.3 0 6 2.7 6 6v428c0 3.3-2.7 6-6 6h-268c-3.3 0-6-2.7-6-6z" fill="#ffeca9" fill-opacity=".4"/><path d="M1675.33 280h89.34m44.66 0H1854l3.03.82 2.15 2.15.82 3.03v35.67m0 35.66v71.34m0 35.66v71.34m0 35.66v71.34m0 35.66V714l-.82 3.03-2.15 2.15-3.03.82h-44.67m-44.66 0h-89.34m-44.66 0H1586l-3.03-.82-2.15-2.15-.82-3.03v-35.67m0-35.66v-71.34m0-35.66v-71.34m0-35.66v-71.34m0-35.66V286l.82-3.03 2.15-2.15 3.03-.82h44.67" stroke="#5e5e5e" stroke-width="8" fill="none"/><use xlink:href="#D" transform="matrix(1,0,0,1,1585,285) translate(9.864197530864274 28.44444444444443)"/><use xlink:href="#E" transform="matrix(1,0,0,1,1585,285) translate(140.037037037037 28.44444444444443)"/><path d="M1450 1306c0-3.3 2.7-6 6-6h688c3.3 0 6 2.7 6 6v508c0 3.3-2.7 6-6 6h-688c-3.3 0-6-2.7-6-6z" fill="#c92d39" fill-opacity=".22"/><path d="M1532.44 1300h76.45m38.2 0h76.46m38.22 0h76.44m38.22 0h76.45m38.2 0h76.46m38.22 0H2144l3.03.82 2.15 2.15.82 3.03v42.33m0 42.34v84.66m0 42.34v84.66m0 42.34v84.66m0 42.34V1814l-.82 3.03-2.15 2.15-3.03.82h-38.22m-38.22 0h-76.45m-38.2 0h-76.46m-38.22 0h-76.44m-38.22 0h-76.45m-38.2 0h-76.46m-38.22 0H1456l-3.03-.82-2.15-2.15-.82-3.03v-42.33m0-42.34v-84.66m0-42.34v-84.66m0-42.34v-84.66m0-42.34V1306l.82-3.03 2.15-2.15 3.03-.82h38.22" stroke="#5e5e5e" stroke-width="8" fill="none"/><use xlink:href="#F" transform="matrix(1,0,0,1,1455,1305) translate(18.277777777777885 31.99999999999999)"/><use xlink:href="#G" transform="matrix(1,0,0,1,1455,1305) translate(118.16666666666674 31.99999999999999)"/><use xlink:href="#H" transform="matrix(1,0,0,1,1455,1305) translate(151.50000000000006 31.99999999999999)"/><use xlink:href="#I" transform="matrix(1,0,0,1,1455,1305) translate(302.50000000000006 31.99999999999999)"/><use xlink:href="#J" transform="matrix(1,0,0,1,1455,1305) translate(351.1666666666667 31.99999999999999)"/><use xlink:href="#K" transform="matrix(1,0,0,1,1455,1305) translate(572.9444444444443 31.99999999999999)"/><path d="M1308.2 1553.34l.3 1.1.27.26 1.1.3h413.18v10h-414.5l-4.97-1.34-4.03-4.04-1.34-4.96V886.5h10z" fill="#5e5e5e"/><path d="M1308.2 886.63h-10v-5.13h10zM1742.32 1560l-14.27 4.64v-9.28z" fill="#5e5e5e"/><path d="M1758.5 1560l-35.45 11.52v-23.04zM1270.17 1713.34l.3 1.1.27.26 1.1.3h451.2v10h-452.53l-4.95-1.34-4.04-4.04-1.33-4.96V886.5h10z" fill="#5e5e5e"/><path d="M1270.17 886.63h-10v-5.13h10zM1742.32 1720l-14.27 4.64v-9.28z" fill="#5e5e5e"/><path d="M1758.5 1720l-35.45 11.52v-23.04z" fill="#5e5e5e"/><path d="M1175.76 224.24c2.34-2.34 6.14-2.34 8.48 0l51.52 51.52c2.34 2.34 1.55 4.24-1.76 4.24h-18c-3.3 0-6 2.7-6 6v28c0 3.3 2.7 6 6 6h18c3.3 0 4.1 1.9 1.76 4.24l-51.52 51.52c-2.34 2.34-6.14 2.34-8.48 0l-51.52-51.52c-2.34-2.34-1.55-4.24 1.76-4.24h18c3.3 0 6-2.7 6-6v-28c0-3.3-2.7-6-6-6h-18c-3.3 0-4.1-1.9-1.76-4.24z" stroke="#5e5e5e" stroke-width="10" fill="#fff"/><use xlink:href="#L" transform="matrix(1,0,0,1,1125,225.00000000000006) translate(33.523518518518514 82.27083333333333)"/><path d="M575.76 224.24c2.34-2.34 6.14-2.34 8.48 0l51.52 51.52c2.34 2.34 1.55 4.24-1.76 4.24h-18c-3.3 0-6 2.7-6 6v28c0 3.3 2.7 6 6 6h18c3.3 0 4.1 1.9 1.76 4.24l-51.52 51.52c-2.34 2.34-6.14 2.34-8.48 0l-51.52-51.52C521.9 321.9 522.7 320 526 320h18c3.3 0 6-2.7 6-6v-28c0-3.3-2.7-6-6-6h-18c-3.3 0-4.1-1.9-1.76-4.24z" stroke="#5e5e5e" stroke-width="8" fill="#fff"/><use xlink:href="#L" transform="matrix(1,0,0,1,525.0000000000001,225) translate(33.523518518518514 82.27083333333333)"/><path d="M422.33 887.92V1084c0 3.3-2.7 6-6 6h-193" stroke="#5e5e5e" stroke-width="10" fill="none"/><path d="M427.33 888.05h-10v-5.13h10z" fill="#5e5e5e"/><path d="M204.06 1090l14.27-4.64v9.28z" stroke="#5e5e5e" stroke-width="10" fill="#5e5e5e"/><path d="M452.75 887.92v388.33c0 3.32-2.68 6-6 6H222.42" stroke="#5e5e5e" stroke-width="10" fill="none"/><path d="M457.75 888.05h-10v-5.13h10z" fill="#5e5e5e"/><path d="M203.15 1282.25l14.27-4.63v9.27z" stroke="#5e5e5e" stroke-width="10" fill="#5e5e5e"/><path d="M486.8 887.92V1444c0 3.3-2.68 6-6 6H223.34" stroke="#5e5e5e" stroke-width="10" fill="none"/><path d="M491.8 888.05h-10v-5.13h10z" fill="#5e5e5e"/><path d="M204.06 1450l14.27-4.64v9.28z" stroke="#5e5e5e" stroke-width="10" fill="#5e5e5e"/><path d="M720-140h80v60h-80z" fill="none"/><path d="M720-128h80m-12 12h-56m12 12h32m-24 12h16m-4 12h-8m4-60v12z" stroke="#5e5e5e" stroke-width="8" fill="#fff"/><path d="M1380-160h80v60h-80z" fill="none"/><path d="M1380-148h80m-12 12h-56m12 12h32m-24 12h16m-4 12h-8m4-60v12z" stroke="#5e5e5e" stroke-width="8" fill="#fff"/><path d="M1200-250h140v160h-140z" fill="none"/><path d="M1200-170h56m0 32v-64m14 48v-32m14 48v-64m14 48v-32m0 16h42" stroke="#5e5e5e" stroke-width="3" fill="#fff"/><use xlink:href="#u" transform="matrix(1,0,0,1,1200,-125.19999999999999) translate(22.03703703703706 37.333333333333314)"/><path d="M760-145v-17.5c0-3.3-2.7-6-6-6h-26.62" stroke="#5e5e5e" stroke-width="10" fill="none"/><path d="M765-137h-1v-3h-8v3h-1v-8.13h10z" fill="#5e5e5e"/><path d="M727.5-168.5h-8.12M595-170h-9c-3.3 0-6 2.7-6 6V-6.5" stroke="#5e5e5e" stroke-width="10" fill="none"/><path d="M603-171.5h-3v3h3v3.5h-8.13v-10H603zM585-1.5h-10v-5.13h10z" fill="#5e5e5e"/><path d="M763.75 26c0-3.3 2.7-6 6-6h179.5c3.3 0 6-2.68 6-6V6c0-3.3 1.8-4 4-1.54l28 31.08c2.2 2.47 2.2 6.46 0 8.92l-28 31.08c-2.2 2.47-4 1.78-4-1.54v-8c0-3.3-2.7-6-6-6h-179.5c-3.3 0-6-2.7-6-6z" stroke="#5e5e5e" stroke-width="8" fill="#f5b5c8"/><path d="M990 214c0 3.32-2.7 6-6 6H802c-3.3 0-6 2.7-6 6v8c0 3.32-1.8 4-4 1.54l-28-31.08c-2.2-2.46-2.2-6.45 0-8.92l28-31.08c2.2-2.46 4-1.77 4 1.54v8c0 3.32 2.7 6 6 6h182c3.3 0 6 2.7 6 6z" stroke="#5e5e5e" stroke-width="8" fill="#fcc438"/><path d="M-101.12 286c0-3.3 2.7-6 6-6h363c3.32 0 6 2.7 6 6v1268.7c0 3.32-2.68 6-6 6h-363c-3.3 0-6-2.68-6-6z" fill="#f5b5c8" fill-opacity=".51"/><path d="M25.88 280h121m60.5 0h60.5l3.03.82 2.16 2.15.82 3.03v52.86m0 52.87v105.72m0 52.86v105.74m0 52.86v105.73m0 52.86V973.2m0 52.86v105.73m0 52.87v105.72m0 52.86v105.72m0 52.87v52.86l-.82 3.04-2.15 2.15-3.02.8h-60.5m-60.5 0h-121m-60.5 0h-60.5l-3.03-.8-2.15-2.16-.82-3.03v-52.85m0-52.87v-105.72m0-52.87v-105.73m0-52.86V1026.1m0-52.86V867.5m0-52.87V708.9m0-52.86V550.3m0-52.85V391.73m0-52.87V286l.82-3.03 2.15-2.15 3.03-.82h60.5" stroke="#5e5e5e" stroke-width="10" fill="none"/><use xlink:href="#M" transform="matrix(1,0,0,1,-96.1182586383884,285) translate(42.944444444444485 31.99999999999999)"/><use xlink:href="#N" transform="matrix(1,0,0,1,-96.1182586383884,285) translate(195.7222222222222 31.99999999999999)"/><use xlink:href="#O" transform="matrix(1,0,0,1,-96.1182586383884,285) translate(9.666666666666742 84.79999999999998)"/><use xlink:href="#P" transform="matrix(1,0,0,1,-96.1182586383884,285) translate(166.7777777777778 84.79999999999998)"/><use xlink:href="#Q" transform="matrix(1,0,0,1,-96.1182586383884,285) translate(248.77777777777777 84.79999999999998)"/><path d="M780 86c0-3.3 2.7-6 6-6h188c3.3 0 6 2.7 6 6v68c0 3.32-2.7 6-6 6H786c-3.3 0-6-2.68-6-6z" fill="#fff"/><use xlink:href="#R" transform="matrix(1,0,0,1,785,85.00346214506831) translate(75.82098765432099 23.11111111111111)"/><use xlink:href="#S" transform="matrix(1,0,0,1,785,85.00346214506831) translate(-11.487654320987673 61.24444444444444)"/><path d="M1420-165l-.96-2.95-2.46-1.8-1.58-.25h-70" stroke="#5e5e5e" stroke-width="10" fill="none"/><path d="M1425-157h-1v-3h-8v3h-1v-8.13h10zM1345.13-165H1337v-3.5h3v-3h-3v-3.5h8.13z" fill="#5e5e5e"/><path d="M1195-170h-14c-3.3 0-6 2.7-6 6V-6.5" stroke="#5e5e5e" stroke-width="10" fill="none"/><path d="M1203-171.5h-3v3h3v3.5h-8.13v-10h8.13zM1180-1.5h-10v-5.13h10z" fill="#5e5e5e"/><path d="M700 900h80v60h-80z" fill="none"/><path d="M700 912h80m-12 12h-56m12 12h32m-24 12h16m-4 12h-8m4-60v12z" stroke="#5e5e5e" stroke-width="8" fill="#fff"/><path d="M960 900h80v60h-80z" fill="none"/><path d="M960 912h80m-12 12h-56m12 12h32m-24 12h16m-4 12h-8m4-60v12z" stroke="#5e5e5e" stroke-width="8" fill="#fff"/><path d="M1499.62 852.56l4.04 4.04 1.34 4.96v331.78l.3 1.1.26.26 1.1.3h286.4v10h-287.72l-4.96-1.34-4.04-4.04-1.34-4.96V862.9l-.3-1.1-.26-.28-1.1-.3H1386.5v-10h108.16z" fill="#5e5e5e"/><path d="M1386.63 861.22h-5.13v-10h5.13zM1812.32 1200l-14.27 4.64v-9.28z" fill="#5e5e5e"/><path d="M1828.5 1200l-35.45 11.52v-23.04z" fill="#5e5e5e"/><path d="M1000 895v-67.5c0-3.3 2.7-6 6-6h67.5" stroke="#5e5e5e" stroke-width="10" fill="none"/><path d="M1005 903h-1v-3h-8v3h-1v-8.13h10zM1078.5 826.5h-5.13v-10h5.13z" fill="#5e5e5e"/><path d="M740 895v-68.7l-.82-3.02-2.15-2.15-3.03-.82h-67.5" stroke="#5e5e5e" stroke-width="10" fill="none"/><path d="M745 903h-1v-3h-8v3h-1v-8.13h10zM666.63 825.3h-5.13v-10h5.13z" fill="#5e5e5e"/><path d="M629 882.83c3.3 0 6 2.7 6 6v41.6c0 3.3 2.7 6 6 6h13c3.3 0 4 1.78 1.54 4l-41.08 36.97c-2.46 2.22-6.46 2.22-8.92 0l-41.08-36.97c-2.46-2.22-1.77-4 1.54-4h13c3.3 0 6-2.7 6-6v-41.6c0-3.3 2.7-6 6-6z" stroke="#5e5e5e" stroke-width="3" fill="#fff"/><use xlink:href="#v" transform="matrix(1,0,0,1,564.9999999999998,887.8346456692913) translate(24.301296296296297 49.14583333333333)"/><path d="M740 711c0-3.3 2.7-6 6-6h95.98c3.3 0 6 2.7 6 6v58c0 3.3-2.7 6-6 6H746c-3.3 0-6-2.7-6-6z" stroke="#5e5e5e" stroke-width="6" fill="#fff"/><use xlink:href="#T" transform="matrix(1,0,0,1,745,710) translate(23.444444444444454 37.91666666666666)"/><path d="M900 711c0-3.3 2.7-6 6-6h95.98c3.3 0 6 2.7 6 6v58c0 3.3-2.7 6-6 6H906c-3.3 0-6-2.7-6-6z" stroke="#5e5e5e" stroke-width="6" fill="#fff"/><use xlink:href="#T" transform="matrix(1,0,0,1,905,710) translate(23.444444444444454 37.91666666666666)"/><path d="M732 740h-35.05" stroke="#5e5e5e" stroke-width="10" fill="none"/><path d="M737 745h-5.13v-10H737z" fill="#5e5e5e"/><path d="M677.68 740l14.27-4.64v9.28z" stroke="#5e5e5e" stroke-width="10" fill="#5e5e5e"/><path d="M1015.98 740h27.07" stroke="#5e5e5e" stroke-width="10" fill="none"/><path d="M1016.1 745h-5.12v-10h5.12z" fill="#5e5e5e"/><path d="M1062.32 740l-14.27 4.64v-9.28z" stroke="#5e5e5e" stroke-width="10" fill="#5e5e5e"/><path d="M380 170h80v60h-80z" fill="none"/><path d="M380 182h80m-12 12h-56m12 12h32m-24 12h16m-4 12h-8m4-60v12z" stroke="#5e5e5e" stroke-width="8" fill="#fff"/><path d="M1297.5 170h80v60h-80z" fill="none"/><path d="M1297.5 182h80m-12 12h-56m12 12h32m-24 12h16m-4 12h-8m4-60v12z" stroke="#5e5e5e" stroke-width="8" fill="#fff"/><path d="M420 165v-49c0-3.3 2.7-6 6-6h47.5" stroke="#5e5e5e" stroke-width="10" fill="none"/><path d="M425 173h-1v-3h-8v3h-1v-8.13h10zM478.5 115h-5.13v-10h5.13z" fill="#5e5e5e"/><path d="M1337.5 165v-49c0-3.3-2.7-6-6-6h-50" stroke="#5e5e5e" stroke-width="10" fill="none"/><path d="M1342.5 173h-1v-3h-8v3h-1v-8.13h10zM1281.63 115h-5.13v-10h5.13z" fill="#5e5e5e"/><path d="M192.88 830h150.17" stroke="#5e5e5e" stroke-width="10" fill="none"/><path d="M193 835h-5.28l.06-.8.1-4.2-.02-1.76-.14-3.24h5.3z" fill="#5e5e5e"/><path d="M362.32 830l-14.27 4.64v-9.28z" stroke="#5e5e5e" stroke-width="10" fill="#5e5e5e"/><path d="M1730 1366c0-3.3 2.7-6 6-6h208c3.3 0 6 2.7 6 6v108c0 3.3-2.7 6-6 6h-208c-3.3 0-6-2.7-6-6z" stroke="#5e5e5e" stroke-width="3" fill="#fff"/><g><use xlink:href="#U" transform="matrix(1,0,0,1,1735,1365) translate(11.753086419753089 42.07638888888889)"/><use xlink:href="#V" transform="matrix(1,0,0,1,1735,1365) translate(89.44444444444444 42.07638888888889)"/><use xlink:href="#W" transform="matrix(1,0,0,1,1735,1365) translate(115.37037037037038 42.07638888888889)"/><use xlink:href="#X" transform="matrix(1,0,0,1,1735,1365) translate(61.05555555555556 79.40972222222223)"/></g><path d="M1920 1560c0 44.18-35.82 80-80 80s-80-35.82-80-80 35.82-80 80-80 80 35.82 80 80z" stroke="#5e5e5e" stroke-width="3" fill="#fff"/><g><use xlink:href="#Y" transform="matrix(1,0,0,1,1765,1485) translate(14.975308641975317 79.36111111111111)"/><use xlink:href="#Z" transform="matrix(1,0,0,1,1765,1485) translate(77.40740740740742 79.36111111111111)"/></g><path d="M1920 1720c0 44.18-35.82 80-80 80s-80-35.82-80-80 35.82-80 80-80 80 35.82 80 80z" stroke="#5e5e5e" stroke-width="3" fill="#fff"/><g><use xlink:href="#aa" transform="matrix(1,0,0,1,1765,1645) translate(27.73456790123457 79.36111111111111)"/></g><path d="M186.38 470c0 49.7-44.77 90-100 90s-100-40.3-100-90 44.77-90 100-90 100 40.3 100 90z" stroke="#5e5e5e" stroke-width="3" fill="#fff"/><g><use xlink:href="#ab" transform="matrix(1,0,0,1,-8.618258638388397,385) translate(48.51117283950618 72.70138888888889)"/><use xlink:href="#ac" transform="matrix(1,0,0,1,-8.618258638388397,385) translate(33.7333950617284 110.03472222222221)"/><use xlink:href="#ad" transform="matrix(1,0,0,1,-8.618258638388397,385) translate(138.99265432098764 110.03472222222221)"/></g><path d="M186.38 650c0 49.7-44.77 90-100 90s-100-40.3-100-90 44.77-90 100-90 100 40.3 100 90z" stroke="#5e5e5e" stroke-width="3" fill="#fff"/><g><use xlink:href="#ab" transform="matrix(1,0,0,1,-8.618258638388397,565) translate(48.51117283950618 72.70138888888889)"/><use xlink:href="#ac" transform="matrix(1,0,0,1,-8.618258638388397,565) translate(33.7333950617284 110.03472222222221)"/><use xlink:href="#ae" transform="matrix(1,0,0,1,-8.618258638388397,565) translate(138.99265432098764 110.03472222222221)"/></g><path d="M186.38 830c0 49.7-44.77 90-100 90s-100-40.3-100-90 44.77-90 100-90 100 40.3 100 90z" stroke="#5e5e5e" stroke-width="3" fill="#fff"/><g><use xlink:href="#ab" transform="matrix(1,0,0,1,-8.618258638388397,745) translate(48.51117283950618 72.70138888888889)"/><use xlink:href="#ac" transform="matrix(1,0,0,1,-8.618258638388397,745) translate(33.7333950617284 110.03472222222221)"/><use xlink:href="#af" transform="matrix(1,0,0,1,-8.618258638388397,745) translate(138.99265432098764 110.03472222222221)"/></g><path d="M186.38 1270c0 49.7-44.77 90-100 90s-100-40.3-100-90 44.77-90 100-90 100 40.3 100 90z" stroke="#5e5e5e" stroke-width="3" fill="#fff"/><g><use xlink:href="#ag" transform="matrix(1,0,0,1,-8.618258638388397,1185) translate(14.759259259259267 88.63888888888889)"/><use xlink:href="#ah" transform="matrix(1,0,0,1,-8.618258638388397,1185) translate(113.19135802469135 88.63888888888889)"/></g><path d="M186.38 1450c0 49.7-44.77 90-100 90s-100-40.3-100-90 44.77-90 100-90 100 40.3 100 90z" stroke="#5e5e5e" stroke-width="3" fill="#fff"/><g><use xlink:href="#ai" transform="matrix(1,0,0,1,-8.618258638388397,1365) translate(44.0987654320988 88.63888888888889)"/></g><g class="lucid-layer" lucid:layer-id="HefZd6_ewykM" display="block"><path d="M1610 338.16c0-3.32 2.7-6 6-6h208c3.3 0 6 2.68 6 6v110c0 3.3-2.7 6-6 6h-208c-3.3 0-6-2.7-6-6z" stroke="#5e5e5e" stroke-width="3" fill="#fff"/><use xlink:href="#aj" transform="matrix(1,0,0,1,1615,337.15735875447547) translate(47.22839506172839 24.888888888888893)"/><use xlink:href="#ak" transform="matrix(1,0,0,1,1615,337.15735875447547) translate(12.141975308641975 62.222222222222236)"/><use xlink:href="#al" transform="matrix(1,0,0,1,1615,337.15735875447547) translate(54.09876543209876 99.55555555555557)"/><path d="M1610 460.16c0-3.32 2.7-6 6-6h208c3.3 0 6 2.68 6 6v108c0 3.3-2.7 6-6 6h-208c-3.3 0-6-2.7-6-6z" stroke="#5e5e5e" stroke-width="3" fill="#fff"/><use xlink:href="#am" transform="matrix(1,0,0,1,1615,459.15735875447547) translate(29.123456790123456 42.07638888888889)"/><use xlink:href="#an" transform="matrix(1,0,0,1,1615,459.15735875447547) translate(52.37037037037037 79.40972222222223)"/><path d="M1800 796c0-3.3 2.7-6 6-6h208c3.3 0 6 2.7 6 6v108c0 3.3-2.7 6-6 6h-208c-3.3 0-6-2.7-6-6z" stroke="#5e5e5e" stroke-width="3" fill="#fff"/><use xlink:href="#ao" transform="matrix(1,0,0,1,1805,795) translate(23.89506172839505 62.70138888888889)"/><use xlink:href="#ap" transform="matrix(1,0,0,1,1805,795) translate(84.30246913580247 62.70138888888889)"/><path d="M1610 580.16c0-3.32 2.7-6 6-6h208c3.3 0 6 2.68 6 6v108c0 3.3-2.7 6-6 6h-208c-3.3 0-6-2.7-6-6z" stroke="#5e5e5e" stroke-width="3" fill="#fff"/><use xlink:href="#aq" transform="matrix(1,0,0,1,1615,579.1573587544755) translate(61.876543209876544 62.70138888888889)"/><path d="M1800 916c0-3.3 2.7-6 6-6h208c3.3 0 6 2.7 6 6v98c0 3.3-2.7 6-6 6h-208c-3.3 0-6-2.7-6-6z" stroke="#5e5e5e" stroke-width="3" fill="#fff"/><use xlink:href="#U" transform="matrix(1,0,0,1,1805,915) translate(10.024691358024683 37.38888888888889)"/><use xlink:href="#ar" transform="matrix(1,0,0,1,1805,915) translate(87.71604938271604 37.38888888888889)"/><use xlink:href="#as" transform="matrix(1,0,0,1,1805,915) translate(113.64197530864197 37.38888888888889)"/><use xlink:href="#X" transform="matrix(1,0,0,1,1805,915) translate(61.05555555555556 74.72222222222223)"/><path d="M1800 1031.35c0-3.3 2.7-6 6-6h208c3.3 0 6 2.7 6 6V1114c0 3.3-2.7 6-6 6h-208c-3.3 0-6-2.7-6-6z" stroke="#5e5e5e" stroke-width="3" fill="#fff"/><use xlink:href="#at" transform="matrix(1,0,0,1,1805,1030.3543307086613) translate(13.567901234567898 30.201388888888893)"/><use xlink:href="#au" transform="matrix(1,0,0,1,1805,1030.3543307086613) translate(108.54320987654322 30.201388888888893)"/><use xlink:href="#av" transform="matrix(1,0,0,1,1805,1030.3543307086613) translate(68.79012345679013 67.53472222222223)"/><path d="M1990 1200c0 44.18-35.82 80-80 80s-80-35.82-80-80 35.82-80 80-80 80 35.82 80 80z" stroke="#5e5e5e" stroke-width="3" fill="#fff"/><g><use xlink:href="#aw" transform="matrix(1,0,0,1,1835,1125) translate(0.49074074074073337 79.36111111111111)"/><use xlink:href="#ax" transform="matrix(1,0,0,1,1835,1125) translate(91.89197530864197 79.36111111111111)"/></g><path d="M186.38 1090c0 49.7-44.77 90-100 90s-100-40.3-100-90 44.77-90 100-90 100 40.3 100 90z" stroke="#5e5e5e" stroke-width="3" fill="#fff"/><g><use xlink:href="#ay" transform="matrix(1,0,0,1,-8.618258638388397,1005) translate(30.358024691358054 88.63888888888889)"/><use xlink:href="#az" transform="matrix(1,0,0,1,-8.618258638388397,1005) translate(97.59259259259258 88.63888888888889)"/></g><path d="M1344.62 1413.47l.4 1.48.64.65 1.5.4h350.13v8h-351.2l-4.6-1.24-3.65-3.66-1.23-4.57V885.5h8z" fill="#5e5e5e"/><path d="M1344.62 885.6h-8v-4.1h8zM1715.56 1420l-14.27 4.64v-9.28z" fill="#5e5e5e"/><path d="M1728.5 1420l-31.2 10.14v-20.28z" fill="#5e5e5e"/></g><defs><path fill="#333" d="M67-125c0 53 21 87 73 88 37 1 54-22 65-47l45 17C233-25 199 4 140 4 58 4 20-42 15-125 8-235 124-281 211-232c18 10 29 29 36 50l-46 12c-8-25-30-41-62-41-52 0-71 34-72 86" id="aA"/><path fill="#333" d="M110-194c64 0 96 36 96 99 0 64-35 99-97 99-61 0-95-36-95-99 0-62 34-99 96-99zm-1 164c35 0 45-28 45-65 0-40-10-65-43-65-34 0-45 26-45 65 0 36 10 65 43 65" id="aB"/><path fill="#333" d="M135-194c87-1 58 113 63 194h-50c-7-57 23-157-34-157-59 0-34 97-39 157H25l-1-190h47c2 12-1 28 3 38 12-26 28-41 61-42" id="aC"/><path fill="#333" d="M115-3C79 11 28 4 28-45v-112H4v-33h27l15-45h31v45h36v33H77v99c-1 23 16 31 38 25v30" id="aD"/><path fill="#333" d="M135-150c-39-12-60 13-60 57V0H25l-1-190h47c2 13-1 29 3 40 6-28 27-53 61-41v41" id="aE"/><path fill="#333" d="M25 0v-261h50V0H25" id="aF"/><g id="a"><use transform="matrix(0.10493827160493828,0,0,0.10493827160493828,0,0)" xlink:href="#aA"/><use transform="matrix(0.10493827160493828,0,0,0.10493827160493828,27.179012345679013,0)" xlink:href="#aB"/><use transform="matrix(0.10493827160493828,0,0,0.10493827160493828,50.160493827160494,0)" xlink:href="#aC"/><use transform="matrix(0.10493827160493828,0,0,0.10493827160493828,73.14197530864197,0)" xlink:href="#aD"/><use transform="matrix(0.10493827160493828,0,0,0.10493827160493828,85.62962962962963,0)" xlink:href="#aE"/><use transform="matrix(0.10493827160493828,0,0,0.10493827160493828,100.32098765432099,0)" xlink:href="#aB"/><use transform="matrix(0.10493827160493828,0,0,0.10493827160493828,123.30246913580248,0)" xlink:href="#aF"/></g><path fill="#333" d="M185-48c-13 30-37 53-82 52C43 2 14-33 14-96s30-98 90-98c62 0 83 45 84 108H66c0 31 8 55 39 56 18 0 30-7 34-22zm-45-69c5-46-57-63-70-21-2 6-4 13-4 21h74" id="aG"/><g id="b"><use transform="matrix(0.10493827160493828,0,0,0.10493827160493828,0,0)" xlink:href="#aA"/><use transform="matrix(0.10493827160493828,0,0,0.10493827160493828,27.179012345679013,0)" xlink:href="#aG"/><use transform="matrix(0.10493827160493828,0,0,0.10493827160493828,48.16666666666667,0)" xlink:href="#aC"/><use transform="matrix(0.10493827160493828,0,0,0.10493827160493828,71.14814814814815,0)" xlink:href="#aD"/><use transform="matrix(0.10493827160493828,0,0,0.10493827160493828,83.63580246913581,0)" xlink:href="#aE"/><use transform="matrix(0.10493827160493828,0,0,0.10493827160493828,98.32716049382717,0)" xlink:href="#aG"/></g><path fill="#333" d="M199 0l-22-63H83L61 0H9l90-248h61L250 0h-51zm-33-102l-36-108c-10 38-24 72-36 108h72" id="aH"/><path fill="#333" d="M88-194c31-1 46 15 58 34l-1-101h50l1 261h-48c-2-10 0-23-3-31C134-8 116 4 84 4 32 4 16-41 15-95c0-56 19-97 73-99zm17 164c33 0 40-30 41-66 1-37-9-64-41-64s-38 30-39 65c0 43 13 65 39 65" id="aI"/><path fill="#333" d="M85 4C-2 5 27-109 22-190h50c7 57-23 150 33 157 60-5 35-97 40-157h50l1 190h-47c-2-12 1-28-3-38-12 25-28 42-61 42" id="aJ"/><path fill="#333" d="M25-224v-37h50v37H25zM25 0v-190h50V0H25" id="aK"/><g id="c"><use transform="matrix(0.10493827160493828,0,0,0.10493827160493828,0,0)" xlink:href="#aH"/><use transform="matrix(0.10493827160493828,0,0,0.10493827160493828,27.179012345679013,0)" xlink:href="#aE"/><use transform="matrix(0.10493827160493828,0,0,0.10493827160493828,41.870370370370374,0)" xlink:href="#aI"/><use transform="matrix(0.10493827160493828,0,0,0.10493827160493828,64.85185185185186,0)" xlink:href="#aJ"/><use transform="matrix(0.10493827160493828,0,0,0.10493827160493828,87.83333333333334,0)" xlink:href="#aK"/><use transform="matrix(0.10493827160493828,0,0,0.10493827160493828,98.32716049382717,0)" xlink:href="#aC"/><use transform="matrix(0.10493827160493828,0,0,0.10493827160493828,121.30864197530865,0)" xlink:href="#aB"/></g><path fill="#333" d="M230 0l2-204L168 0h-37L68-204 70 0H24v-248h70l56 185 57-185h69V0h-46" id="aL"/><path fill="#333" d="M195-6C206 82 75 100 31 46c-4-6-6-13-8-21l49-6c3 16 16 24 34 25 40 0 42-37 40-79-11 22-30 35-61 35-53 0-70-43-70-97 0-56 18-96 73-97 30 0 46 14 59 34l2-30h47zm-90-29c32 0 41-27 41-63 0-35-9-62-40-62-32 0-39 29-40 63 0 36 9 62 39 62" id="aM"/><path fill="#333" d="M133-34C117-15 103 5 69 4 32 3 11-16 11-54c-1-60 55-63 116-61 1-26-3-47-28-47-18 1-26 9-28 27l-52-2c7-38 36-58 82-57s74 22 75 68l1 82c-1 14 12 18 25 15v27c-30 8-71 5-69-32zm-48 3c29 0 43-24 42-57-32 0-66-3-65 30 0 17 8 27 23 27" id="aN"/><g id="d"><use transform="matrix(0.10493827160493828,0,0,0.10493827160493828,0,0)" xlink:href="#aL"/><use transform="matrix(0.10493827160493828,0,0,0.10493827160493828,31.376543209876544,0)" xlink:href="#aG"/><use transform="matrix(0.10493827160493828,0,0,0.10493827160493828,52.3641975308642,0)" xlink:href="#aM"/><use transform="matrix(0.10493827160493828,0,0,0.10493827160493828,75.34567901234568,0)" xlink:href="#aN"/></g><path fill="#333" d="M169-182c-1-43-94-46-97-3 18 66 151 10 154 114 3 95-165 93-204 36-6-8-10-19-12-30l50-8c3 46 112 56 116 5-17-69-150-10-154-114-4-87 153-88 188-35 5 8 8 18 10 28" id="aO"/><path fill="#333" d="M136-208V0H84v-208H4v-40h212v40h-80" id="aP"/><path fill="#333" d="M24 0v-248h195v40H76v63h132v40H76v65h150V0H24" id="aQ"/><path fill="#333" d="M240-174c0 40-23 61-54 70L253 0h-59l-57-94H76V0H24v-248c93 4 217-23 216 74zM76-134c48-2 112 12 112-38 0-48-66-32-112-35v73" id="aR"/><g id="e"><use transform="matrix(0.10493827160493828,0,0,0.10493827160493828,0,0)" xlink:href="#aL"/><use transform="matrix(0.10493827160493828,0,0,0.10493827160493828,31.376543209876544,0)" xlink:href="#aH"/><use transform="matrix(0.10493827160493828,0,0,0.10493827160493828,58.55555555555556,0)" xlink:href="#aO"/><use transform="matrix(0.10493827160493828,0,0,0.10493827160493828,83.74074074074075,0)" xlink:href="#aP"/><use transform="matrix(0.10493827160493828,0,0,0.10493827160493828,106.72222222222223,0)" xlink:href="#aQ"/><use transform="matrix(0.10493827160493828,0,0,0.10493827160493828,131.90740740740742,0)" xlink:href="#aR"/></g><path fill="#333" d="M24 0v-248h52V0H24" id="aS"/><path fill="#333" d="M4 7l51-268h42L46 7H4" id="aT"/><path fill="#333" d="M140-251c80 0 125 45 125 126S219 4 139 4C58 4 15-44 15-125s44-126 125-126zm-1 214c52 0 73-35 73-88 0-50-21-86-72-86-52 0-73 35-73 86s22 88 72 88" id="aU"/><g id="f"><use transform="matrix(0.1111111111111111,0,0,0.1111111111111111,0,0)" xlink:href="#aS"/><use transform="matrix(0.1111111111111111,0,0,0.1111111111111111,11.11111111111111,0)" xlink:href="#aT"/><use transform="matrix(0.1111111111111111,0,0,0.1111111111111111,22.22222222222222,0)" xlink:href="#aU"/></g><g id="g"><use transform="matrix(0.1111111111111111,0,0,0.1111111111111111,0,0)" xlink:href="#aH"/><use transform="matrix(0.1111111111111111,0,0,0.1111111111111111,28.777777777777775,0)" xlink:href="#aE"/><use transform="matrix(0.1111111111111111,0,0,0.1111111111111111,44.33333333333333,0)" xlink:href="#aI"/><use transform="matrix(0.1111111111111111,0,0,0.1111111111111111,68.66666666666666,0)" xlink:href="#aJ"/><use transform="matrix(0.1111111111111111,0,0,0.1111111111111111,92.99999999999999,0)" xlink:href="#aK"/><use transform="matrix(0.1111111111111111,0,0,0.1111111111111111,104.1111111111111,0)" xlink:href="#aC"/><use transform="matrix(0.1111111111111111,0,0,0.1111111111111111,128.44444444444443,0)" xlink:href="#aB"/></g><g id="h"><use transform="matrix(0.1111111111111111,0,0,0.1111111111111111,0,0)" xlink:href="#aL"/><use transform="matrix(0.1111111111111111,0,0,0.1111111111111111,33.22222222222222,0)" xlink:href="#aG"/><use transform="matrix(0.1111111111111111,0,0,0.1111111111111111,55.44444444444444,0)" xlink:href="#aM"/><use transform="matrix(0.1111111111111111,0,0,0.1111111111111111,79.77777777777777,0)" xlink:href="#aN"/></g><path fill="#333" d="M24 0v-248h52v208h133V0H24" id="aV"/><path fill="#333" d="M147 0H94L2-248h55l64 206c17-72 42-137 63-206h54" id="aW"/><g id="i"><use transform="matrix(0.1111111111111111,0,0,0.1111111111111111,0,0)" xlink:href="#aO"/><use transform="matrix(0.1111111111111111,0,0,0.1111111111111111,26.666666666666664,0)" xlink:href="#aV"/><use transform="matrix(0.1111111111111111,0,0,0.1111111111111111,51,0)" xlink:href="#aH"/><use transform="matrix(0.1111111111111111,0,0,0.1111111111111111,76.77777777777777,0)" xlink:href="#aW"/><use transform="matrix(0.1111111111111111,0,0,0.1111111111111111,103.44444444444443,0)" xlink:href="#aQ"/></g><path fill="#333" d="M175 0L67-191c6 58 2 128 3 191H24v-248h59L193-55c-6-58-2-129-3-193h46V0h-61" id="aX"/><path fill="#333" d="M76-208v77h127v40H76V0H24v-248h183v40H76" id="aY"/><path fill="#333" d="M182-182c0 78-84 86-111 141h115V0H12c-6-101 99-100 120-180 1-22-12-31-33-32-23 0-32 14-35 34l-49-3c5-45 32-70 84-70 51 0 83 22 83 69" id="aZ"/><path fill="#333" d="M165-50V0h-47v-50H5v-38l105-160h55v161h33v37h-33zm-47-37l2-116L46-87h72" id="ba"/><path fill="#333" d="M23 0v-37h61v-169l-59 37v-38l62-41h46v211h57V0H23" id="bb"/><path fill="#333" d="M125-100v72H85v-72H15v-39h70v-72h40v72h71v39h-71" id="bc"/><g id="j"><use transform="matrix(0.0925925925925926,0,0,0.0925925925925926,0,0)" xlink:href="#aX"/><use transform="matrix(0.0925925925925926,0,0,0.0925925925925926,23.981481481481485,0)" xlink:href="#aR"/><use transform="matrix(0.0925925925925926,0,0,0.0925925925925926,47.96296296296297,0)" xlink:href="#aY"/><use transform="matrix(0.0925925925925926,0,0,0.0925925925925926,68.24074074074075,0)" xlink:href="#aZ"/><use transform="matrix(0.0925925925925926,0,0,0.0925925925925926,86.75925925925927,0)" xlink:href="#ba"/><use transform="matrix(0.0925925925925926,0,0,0.0925925925925926,105.27777777777779,0)" xlink:href="#aV"/><use transform="matrix(0.0925925925925926,0,0,0.0925925925925926,125.55555555555557,0)" xlink:href="#aU"/><use transform="matrix(0.0925925925925926,0,0,0.0925925925925926,151.4814814814815,0)" xlink:href="#bb"/><use transform="matrix(0.0925925925925926,0,0,0.0925925925925926,170,0)" xlink:href="#bc"/></g><g id="k"><use transform="matrix(0.0925925925925926,0,0,0.0925925925925926,0,0)" xlink:href="#aR"/><use transform="matrix(0.0925925925925926,0,0,0.0925925925925926,23.981481481481485,0)" xlink:href="#aY"/></g><g id="l"><use transform="matrix(0.0925925925925926,0,0,0.0925925925925926,0,0)" xlink:href="#aL"/><use transform="matrix(0.0925925925925926,0,0,0.0925925925925926,27.685185185185187,0)" xlink:href="#aB"/><use transform="matrix(0.0925925925925926,0,0,0.0925925925925926,47.962962962962955,0)" xlink:href="#aI"/><use transform="matrix(0.0925925925925926,0,0,0.0925925925925926,68.24074074074073,0)" xlink:href="#aJ"/><use transform="matrix(0.0925925925925926,0,0,0.0925925925925926,88.5185185185185,0)" xlink:href="#aF"/><use transform="matrix(0.0925925925925926,0,0,0.0925925925925926,97.77777777777777,0)" xlink:href="#aG"/></g><g id="m"><use transform="matrix(0.08641975308641976,0,0,0.08641975308641976,0,0)" xlink:href="#aX"/><use transform="matrix(0.08641975308641976,0,0,0.08641975308641976,22.38271604938272,0)" xlink:href="#aR"/><use transform="matrix(0.08641975308641976,0,0,0.08641975308641976,44.76543209876544,0)" xlink:href="#aY"/><use transform="matrix(0.08641975308641976,0,0,0.08641975308641976,63.69135802469137,0)" xlink:href="#aZ"/><use transform="matrix(0.08641975308641976,0,0,0.08641975308641976,80.97530864197532,0)" xlink:href="#ba"/><use transform="matrix(0.08641975308641976,0,0,0.08641975308641976,98.25925925925927,0)" xlink:href="#aV"/><use transform="matrix(0.08641975308641976,0,0,0.08641975308641976,117.18518518518519,0)" xlink:href="#aU"/><use transform="matrix(0.08641975308641976,0,0,0.08641975308641976,141.38271604938274,0)" xlink:href="#bb"/><use transform="matrix(0.08641975308641976,0,0,0.08641975308641976,158.66666666666669,0)" xlink:href="#bc"/></g><g id="n"><use transform="matrix(0.08641975308641976,0,0,0.08641975308641976,0,0)" xlink:href="#aR"/><use transform="matrix(0.08641975308641976,0,0,0.08641975308641976,22.38271604938272,0)" xlink:href="#aY"/></g><g id="o"><use transform="matrix(0.08641975308641976,0,0,0.08641975308641976,0,0)" xlink:href="#aL"/><use transform="matrix(0.08641975308641976,0,0,0.08641975308641976,25.83950617283951,0)" xlink:href="#aB"/><use transform="matrix(0.08641975308641976,0,0,0.08641975308641976,44.76543209876544,0)" xlink:href="#aI"/><use transform="matrix(0.08641975308641976,0,0,0.08641975308641976,63.69135802469137,0)" xlink:href="#aJ"/><use transform="matrix(0.08641975308641976,0,0,0.08641975308641976,82.61728395061729,0)" xlink:href="#aF"/><use transform="matrix(0.08641975308641976,0,0,0.08641975308641976,91.25925925925927,0)" xlink:href="#aG"/></g><path fill="#333" d="M24-248c120-7 223 5 221 122C244-46 201 0 124 0H24v-248zM76-40c74 7 117-18 117-86 0-67-45-88-117-82v168" id="bd"/><g id="p"><use transform="matrix(0.11111111111111108,0,0,0.11111111111111108,0,0)" xlink:href="#aV"/><use transform="matrix(0.11111111111111108,0,0,0.11111111111111108,24.333333333333325,0)" xlink:href="#aA"/><use transform="matrix(0.11111111111111108,0,0,0.11111111111111108,53.11111111111109,0)" xlink:href="#bd"/></g><path fill="#333" d="M67-93c0 74 22 123 53 168H70C40 30 18-18 18-93s22-123 52-168h50c-32 44-53 94-53 168" id="be"/><path fill="#333" d="M102-93c0 74-22 123-52 168H0C30 29 54-18 53-93c0-74-22-123-53-168h50c30 45 52 94 52 168" id="bf"/><g id="q"><use transform="matrix(0.11111111111111108,0,0,0.11111111111111108,0,0)" xlink:href="#be"/><use transform="matrix(0.11111111111111108,0,0,0.11111111111111108,13.222222222222218,0)" xlink:href="#aS"/><use transform="matrix(0.11111111111111108,0,0,0.11111111111111108,24.333333333333325,0)" xlink:href="#aZ"/><use transform="matrix(0.11111111111111108,0,0,0.11111111111111108,46.55555555555554,0)" xlink:href="#aA"/><use transform="matrix(0.11111111111111108,0,0,0.11111111111111108,75.33333333333331,0)" xlink:href="#bf"/></g><g id="r"><use transform="matrix(0.1172839506172839,0,0,0.1172839506172839,0,0)" xlink:href="#aV"/><use transform="matrix(0.1172839506172839,0,0,0.1172839506172839,25.685185185185176,0)" xlink:href="#aA"/><use transform="matrix(0.1172839506172839,0,0,0.1172839506172839,56.06172839506171,0)" xlink:href="#bd"/></g><g id="s"><use transform="matrix(0.1172839506172839,0,0,0.1172839506172839,0,0)" xlink:href="#be"/><use transform="matrix(0.1172839506172839,0,0,0.1172839506172839,13.956790123456784,0)" xlink:href="#aS"/><use transform="matrix(0.1172839506172839,0,0,0.1172839506172839,25.685185185185176,0)" xlink:href="#aZ"/><use transform="matrix(0.1172839506172839,0,0,0.1172839506172839,49.14197530864196,0)" xlink:href="#aA"/><use transform="matrix(0.1172839506172839,0,0,0.1172839506172839,79.51851851851849,0)" xlink:href="#bf"/></g><path fill="#333" d="M67-125c0 54 23 88 75 88 28 0 53-7 68-21v-34h-60v-39h108v91C232-14 192 4 140 4 58 4 20-42 15-125 8-236 126-280 215-234c19 10 29 26 37 47l-47 15c-11-23-29-39-63-39-53 1-75 33-75 86" id="bg"/><g id="t"><use transform="matrix(0.06172839506172839,0,0,0.06172839506172839,0,0)" xlink:href="#aH"/><use transform="matrix(0.06172839506172839,0,0,0.06172839506172839,14.320987654320987,0)" xlink:href="#aP"/><use transform="matrix(0.06172839506172839,0,0,0.06172839506172839,27.839506172839506,0)" xlink:href="#aL"/><use transform="matrix(0.06172839506172839,0,0,0.06172839506172839,46.29629629629629,0)" xlink:href="#aQ"/><use transform="matrix(0.06172839506172839,0,0,0.06172839506172839,61.1111111111111,0)" xlink:href="#bg"/><use transform="matrix(0.06172839506172839,0,0,0.06172839506172839,78.39506172839505,0)" xlink:href="#aH"/></g><path fill="#333" d="M128-127c34 4 56 21 59 58 7 91-148 94-172 28-4-9-6-17-7-26l51-5c1 24 16 35 40 36 23 0 39-12 38-36-1-31-31-36-65-34v-40c32 2 59-3 59-33 0-20-13-33-34-33s-33 13-35 32l-50-3c6-44 37-68 86-68 50 0 83 20 83 66 0 35-22 52-53 58" id="bh"/><path fill="#333" d="M24 0v-54h51V0H24" id="bi"/><g id="u"><use transform="matrix(0.12962962962962957,0,0,0.12962962962962957,0,0)" xlink:href="#bh"/><use transform="matrix(0.12962962962962957,0,0,0.12962962962962957,25.925925925925913,0)" xlink:href="#bi"/><use transform="matrix(0.12962962962962957,0,0,0.12962962962962957,38.88888888888887,0)" xlink:href="#bh"/><use transform="matrix(0.12962962962962957,0,0,0.12962962962962957,64.81481481481478,0)" xlink:href="#aW"/></g><g id="v"><use transform="matrix(0.07407407407407407,0,0,0.07407407407407407,0,0)" xlink:href="#aS"/><use transform="matrix(0.07407407407407407,0,0,0.07407407407407407,7.4074074074074066,0)" xlink:href="#aZ"/><use transform="matrix(0.07407407407407407,0,0,0.07407407407407407,22.22222222222222,0)" xlink:href="#aA"/></g><g id="w"><use transform="matrix(0.0987654320987654,0,0,0.0987654320987654,0,0)" xlink:href="#bg"/><use transform="matrix(0.0987654320987654,0,0,0.0987654320987654,27.654320987654312,0)" xlink:href="#aN"/><use transform="matrix(0.0987654320987654,0,0,0.0987654320987654,47.40740740740739,0)" xlink:href="#aD"/><use transform="matrix(0.0987654320987654,0,0,0.0987654320987654,59.16049382716047,0)" xlink:href="#aG"/></g><use transform="matrix(0.0987654320987654,0,0,0.0987654320987654,0,0)" xlink:href="#bb" id="x"/><path fill="#333" d="M190-63c-7 42-38 67-86 67-59 0-84-38-90-98-12-110 154-137 174-36l-49 2c-2-19-15-32-35-32-30 0-35 28-38 64-6 74 65 87 74 30" id="bj"/><path fill="#333" d="M137-138c1-29-70-34-71-4 15 46 118 7 119 86 1 83-164 76-172 9l43-7c4 19 20 25 44 25 33 8 57-30 24-41C81-84 22-81 20-136c-2-80 154-74 161-7" id="bk"/><g id="y"><use transform="matrix(0.0987654320987654,0,0,0.0987654320987654,0,0)" xlink:href="#aH"/><use transform="matrix(0.0987654320987654,0,0,0.0987654320987654,25.58024691358024,0)" xlink:href="#bj"/><use transform="matrix(0.0987654320987654,0,0,0.0987654320987654,45.333333333333314,0)" xlink:href="#bj"/><use transform="matrix(0.0987654320987654,0,0,0.0987654320987654,65.08641975308639,0)" xlink:href="#aG"/><use transform="matrix(0.0987654320987654,0,0,0.0987654320987654,84.83950617283946,0)" xlink:href="#bk"/><use transform="matrix(0.0987654320987654,0,0,0.0987654320987654,104.59259259259254,0)" xlink:href="#bk"/></g><g id="z"><use transform="matrix(0.0987654320987654,0,0,0.0987654320987654,0,0)" xlink:href="#aD"/><use transform="matrix(0.0987654320987654,0,0,0.0987654320987654,11.753086419753082,0)" xlink:href="#aB"/></g><path fill="#333" d="M121-226c-27-7-43 5-38 36h38v33H83V0H34v-157H6v-33h28c-9-59 32-81 87-68v32" id="bl"/><path fill="#333" d="M123 10C108 53 80 86 19 72V37c35 8 53-11 59-39L3-190h52l48 148c12-52 28-100 44-148h51" id="bm"/><g id="A"><use transform="matrix(0.0987654320987654,0,0,0.0987654320987654,0,0)" xlink:href="#bl"/><use transform="matrix(0.0987654320987654,0,0,0.0987654320987654,11.753086419753082,0)" xlink:href="#aN"/><use transform="matrix(0.0987654320987654,0,0,0.0987654320987654,31.506172839506164,0)" xlink:href="#bj"/><use transform="matrix(0.0987654320987654,0,0,0.0987654320987654,51.259259259259245,0)" xlink:href="#aD"/><use transform="matrix(0.0987654320987654,0,0,0.0987654320987654,63.01234567901233,0)" xlink:href="#aB"/><use transform="matrix(0.0987654320987654,0,0,0.0987654320987654,84.64197530864195,0)" xlink:href="#aE"/><use transform="matrix(0.0987654320987654,0,0,0.0987654320987654,98.4691358024691,0)" xlink:href="#bm"/></g><g id="C"><use transform="matrix(0.12962962962962957,0,0,0.12962962962962957,0,0)" xlink:href="#aS"/><use transform="matrix(0.12962962962962957,0,0,0.12962962962962957,12.962962962962957,0)" xlink:href="#aZ"/><use transform="matrix(0.12962962962962957,0,0,0.12962962962962957,38.88888888888887,0)" xlink:href="#aA"/></g><g id="D"><use transform="matrix(0.09876543209876537,0,0,0.09876543209876537,0,0)" xlink:href="#aO"/><use transform="matrix(0.09876543209876537,0,0,0.09876543209876537,23.703703703703688,0)" xlink:href="#aG"/><use transform="matrix(0.09876543209876537,0,0,0.09876543209876537,43.45679012345676,0)" xlink:href="#aC"/><use transform="matrix(0.09876543209876537,0,0,0.09876543209876537,65.08641975308637,0)" xlink:href="#bk"/><use transform="matrix(0.09876543209876537,0,0,0.09876543209876537,84.83950617283945,0)" xlink:href="#aB"/><use transform="matrix(0.09876543209876537,0,0,0.09876543209876537,106.46913580246907,0)" xlink:href="#aE"/></g><g id="E"><use transform="matrix(0.09876543209876537,0,0,0.09876543209876537,0,0)" xlink:href="#aO"/><use transform="matrix(0.09876543209876537,0,0,0.09876543209876537,23.703703703703688,0)" xlink:href="#aD"/><use transform="matrix(0.09876543209876537,0,0,0.09876543209876537,35.45679012345677,0)" xlink:href="#aN"/><use transform="matrix(0.09876543209876537,0,0,0.09876543209876537,55.209876543209845,0)" xlink:href="#aD"/><use transform="matrix(0.09876543209876537,0,0,0.09876543209876537,66.96296296296292,0)" xlink:href="#aK"/><use transform="matrix(0.09876543209876537,0,0,0.09876543209876537,76.83950617283946,0)" xlink:href="#aB"/><use transform="matrix(0.09876543209876537,0,0,0.09876543209876537,98.46913580246908,0)" xlink:href="#aC"/></g><g id="F"><use transform="matrix(0.11111111111111108,0,0,0.11111111111111108,0,0)" xlink:href="#bg"/><use transform="matrix(0.11111111111111108,0,0,0.11111111111111108,31.1111111111111,0)" xlink:href="#aN"/><use transform="matrix(0.11111111111111108,0,0,0.11111111111111108,53.333333333333314,0)" xlink:href="#aD"/><use transform="matrix(0.11111111111111108,0,0,0.11111111111111108,66.55555555555553,0)" xlink:href="#aG"/></g><use transform="matrix(0.11111111111111108,0,0,0.11111111111111108,0,0)" xlink:href="#aZ" id="G"/><g id="H"><use transform="matrix(0.11111111111111108,0,0,0.11111111111111108,0,0)" xlink:href="#aH"/><use transform="matrix(0.11111111111111108,0,0,0.11111111111111108,28.777777777777768,0)" xlink:href="#bj"/><use transform="matrix(0.11111111111111108,0,0,0.11111111111111108,50.999999999999986,0)" xlink:href="#bj"/><use transform="matrix(0.11111111111111108,0,0,0.11111111111111108,73.2222222222222,0)" xlink:href="#aG"/><use transform="matrix(0.11111111111111108,0,0,0.11111111111111108,95.44444444444441,0)" xlink:href="#bk"/><use transform="matrix(0.11111111111111108,0,0,0.11111111111111108,117.66666666666663,0)" xlink:href="#bk"/></g><g id="I"><use transform="matrix(0.11111111111111108,0,0,0.11111111111111108,0,0)" xlink:href="#aD"/><use transform="matrix(0.11111111111111108,0,0,0.11111111111111108,13.222222222222218,0)" xlink:href="#aB"/></g><path fill="#333" d="M140-251c80 0 125 45 125 126 0 70-33 111-92 124 6 28 34 38 68 31l-1 36C177 83 129 55 120 2 51-6 15-50 15-125c0-81 44-126 125-126zm-1 214c52 0 73-35 73-88 0-50-21-86-72-86-52 0-73 35-73 86s22 88 72 88" id="bn"/><g id="J"><use transform="matrix(0.11111111111111108,0,0,0.11111111111111108,0,0)" xlink:href="#bn"/><use transform="matrix(0.11111111111111108,0,0,0.11111111111111108,31.1111111111111,0)" xlink:href="#aJ"/><use transform="matrix(0.11111111111111108,0,0,0.11111111111111108,55.44444444444443,0)" xlink:href="#aN"/><use transform="matrix(0.11111111111111108,0,0,0.11111111111111108,77.66666666666664,0)" xlink:href="#aE"/><use transform="matrix(0.11111111111111108,0,0,0.11111111111111108,93.2222222222222,0)" xlink:href="#aN"/><use transform="matrix(0.11111111111111108,0,0,0.11111111111111108,115.44444444444441,0)" xlink:href="#aC"/><use transform="matrix(0.11111111111111108,0,0,0.11111111111111108,139.77777777777774,0)" xlink:href="#aD"/><use transform="matrix(0.11111111111111108,0,0,0.11111111111111108,152.99999999999997,0)" xlink:href="#aK"/><use transform="matrix(0.11111111111111108,0,0,0.11111111111111108,164.1111111111111,0)" xlink:href="#aC"/><use transform="matrix(0.11111111111111108,0,0,0.11111111111111108,188.4444444444444,0)" xlink:href="#aG"/></g><path fill="#333" d="M220-157c-53 9-28 100-34 157h-49v-107c1-27-5-49-29-50C55-147 81-57 75 0H25l-1-190h47c2 12-1 28 3 38 10-53 101-56 108 0 13-22 24-43 59-42 82 1 51 116 57 194h-49v-107c-1-25-5-48-29-50" id="bo"/><g id="K"><use transform="matrix(0.11111111111111108,0,0,0.11111111111111108,0,0)" xlink:href="#aE"/><use transform="matrix(0.11111111111111108,0,0,0.11111111111111108,15.55555555555555,0)" xlink:href="#aB"/><use transform="matrix(0.11111111111111108,0,0,0.11111111111111108,39.88888888888887,0)" xlink:href="#aB"/><use transform="matrix(0.11111111111111108,0,0,0.11111111111111108,64.2222222222222,0)" xlink:href="#bo"/></g><path fill="#333" d="M24-248c93 1 206-16 204 79-1 75-69 88-152 82V0H24v-248zm52 121c47 0 100 7 100-41 0-47-54-39-100-39v80" id="bp"/><g id="L"><use transform="matrix(0.07407407407407407,0,0,0.07407407407407407,0,0)" xlink:href="#aO"/><use transform="matrix(0.07407407407407407,0,0,0.07407407407407407,17.77777777777778,0)" xlink:href="#bp"/><use transform="matrix(0.07407407407407407,0,0,0.07407407407407407,35.55555555555556,0)" xlink:href="#aS"/></g><g id="M"><use transform="matrix(0.11111111111111108,0,0,0.11111111111111108,0,0)" xlink:href="#aA"/><use transform="matrix(0.11111111111111108,0,0,0.11111111111111108,28.777777777777768,0)" xlink:href="#aB"/><use transform="matrix(0.11111111111111108,0,0,0.11111111111111108,53.11111111111109,0)" xlink:href="#aC"/><use transform="matrix(0.11111111111111108,0,0,0.11111111111111108,77.44444444444441,0)" xlink:href="#aD"/><use transform="matrix(0.11111111111111108,0,0,0.11111111111111108,90.66666666666663,0)" xlink:href="#aE"/><use transform="matrix(0.11111111111111108,0,0,0.11111111111111108,106.22222222222217,0)" xlink:href="#aB"/><use transform="matrix(0.11111111111111108,0,0,0.11111111111111108,130.5555555555555,0)" xlink:href="#aF"/></g><g id="N"><use transform="matrix(0.11111111111111108,0,0,0.11111111111111108,0,0)" xlink:href="#aA"/><use transform="matrix(0.11111111111111108,0,0,0.11111111111111108,28.777777777777768,0)" xlink:href="#aG"/><use transform="matrix(0.11111111111111108,0,0,0.11111111111111108,50.999999999999986,0)" xlink:href="#aC"/><use transform="matrix(0.11111111111111108,0,0,0.11111111111111108,75.33333333333331,0)" xlink:href="#aD"/><use transform="matrix(0.11111111111111108,0,0,0.11111111111111108,88.55555555555553,0)" xlink:href="#aE"/><use transform="matrix(0.11111111111111108,0,0,0.11111111111111108,104.11111111111109,0)" xlink:href="#aG"/></g><path fill="#333" d="M135-194c52 0 70 43 70 98 0 56-19 99-73 100-30 1-46-15-58-35L72 0H24l1-261h50v104c11-23 29-37 60-37zM114-30c31 0 40-27 40-66 0-37-7-63-39-63s-41 28-41 65c0 36 8 64 40 64" id="bq"/><g id="O"><use transform="matrix(0.11111111111111108,0,0,0.11111111111111108,0,0)" xlink:href="#bq"/><use transform="matrix(0.11111111111111108,0,0,0.11111111111111108,24.333333333333325,0)" xlink:href="#aJ"/><use transform="matrix(0.11111111111111108,0,0,0.11111111111111108,48.66666666666665,0)" xlink:href="#aD"/><use transform="matrix(0.11111111111111108,0,0,0.11111111111111108,61.88888888888887,0)" xlink:href="#aD"/><use transform="matrix(0.11111111111111108,0,0,0.11111111111111108,75.11111111111109,0)" xlink:href="#aB"/><use transform="matrix(0.11111111111111108,0,0,0.11111111111111108,99.44444444444441,0)" xlink:href="#aC"/><use transform="matrix(0.11111111111111108,0,0,0.11111111111111108,123.77777777777774,0)" xlink:href="#bk"/></g><g id="P"><use transform="matrix(0.11111111111111108,0,0,0.11111111111111108,0,0)" xlink:href="#aN"/><use transform="matrix(0.11111111111111108,0,0,0.11111111111111108,22.222222222222214,0)" xlink:href="#aC"/><use transform="matrix(0.11111111111111108,0,0,0.11111111111111108,46.55555555555554,0)" xlink:href="#aI"/></g><g id="Q"><use transform="matrix(0.11111111111111108,0,0,0.11111111111111108,0,0)" xlink:href="#aN"/><use transform="matrix(0.11111111111111108,0,0,0.11111111111111108,22.222222222222214,0)" xlink:href="#aF"/><use transform="matrix(0.11111111111111108,0,0,0.11111111111111108,33.33333333333332,0)" xlink:href="#aG"/><use transform="matrix(0.11111111111111108,0,0,0.11111111111111108,55.555555555555536,0)" xlink:href="#aE"/><use transform="matrix(0.11111111111111108,0,0,0.11111111111111108,71.11111111111109,0)" xlink:href="#aD"/><use transform="matrix(0.11111111111111108,0,0,0.11111111111111108,84.3333333333333,0)" xlink:href="#bk"/></g><g id="R"><use transform="matrix(0.08024691358024691,0,0,0.08024691358024691,0,0)" xlink:href="#aR"/><use transform="matrix(0.08024691358024691,0,0,0.08024691358024691,20.78395061728395,0)" xlink:href="#aY"/></g><g id="S"><use transform="matrix(0.08024691358024691,0,0,0.08024691358024691,0,0)" xlink:href="#bj"/><use transform="matrix(0.08024691358024691,0,0,0.08024691358024691,16.049382716049383,0)" xlink:href="#aB"/><use transform="matrix(0.08024691358024691,0,0,0.08024691358024691,33.623456790123456,0)" xlink:href="#bo"/><use transform="matrix(0.08024691358024691,0,0,0.08024691358024691,59.30246913580247,0)" xlink:href="#bo"/><use transform="matrix(0.08024691358024691,0,0,0.08024691358024691,84.98148148148148,0)" xlink:href="#aJ"/><use transform="matrix(0.08024691358024691,0,0,0.08024691358024691,102.55555555555554,0)" xlink:href="#aC"/><use transform="matrix(0.08024691358024691,0,0,0.08024691358024691,120.12962962962965,0)" xlink:href="#aK"/><use transform="matrix(0.08024691358024691,0,0,0.08024691358024691,128.15432098765433,0)" xlink:href="#bj"/><use transform="matrix(0.08024691358024691,0,0,0.08024691358024691,144.20370370370372,0)" xlink:href="#aN"/><use transform="matrix(0.08024691358024691,0,0,0.08024691358024691,160.25308641975312,0)" xlink:href="#aD"/><use transform="matrix(0.08024691358024691,0,0,0.08024691358024691,169.80246913580248,0)" xlink:href="#aK"/><use transform="matrix(0.08024691358024691,0,0,0.08024691358024691,177.8271604938272,0)" xlink:href="#aB"/><use transform="matrix(0.08024691358024691,0,0,0.08024691358024691,195.40123456790127,0)" xlink:href="#aC"/></g><g id="T"><use transform="matrix(0.09259259259259256,0,0,0.09259259259259256,0,0)" xlink:href="#aW"/><use transform="matrix(0.09259259259259256,0,0,0.09259259259259256,21.574074074074066,0)" xlink:href="#aK"/><use transform="matrix(0.09259259259259256,0,0,0.09259259259259256,30.83333333333332,0)" xlink:href="#aC"/></g><g id="U"><use transform="matrix(0.08641975308641976,0,0,0.08641975308641976,0,0)" xlink:href="#bg"/><use transform="matrix(0.08641975308641976,0,0,0.08641975308641976,24.19753086419753,0)" xlink:href="#aN"/><use transform="matrix(0.08641975308641976,0,0,0.08641975308641976,41.48148148148148,0)" xlink:href="#aD"/><use transform="matrix(0.08641975308641976,0,0,0.08641975308641976,51.76543209876543,0)" xlink:href="#aG"/></g><use transform="matrix(0.08641975308641976,0,0,0.08641975308641976,0,0)" xlink:href="#aZ" id="V"/><path fill="#333" d="M128 0H69L1-190h53L99-40l48-150h52" id="br"/><g id="W"><use transform="matrix(0.08641975308641976,0,0,0.08641975308641976,0,0)" xlink:href="#bk"/><use transform="matrix(0.08641975308641976,0,0,0.08641975308641976,17.283950617283953,0)" xlink:href="#aG"/><use transform="matrix(0.08641975308641976,0,0,0.08641975308641976,34.567901234567906,0)" xlink:href="#aE"/><use transform="matrix(0.08641975308641976,0,0,0.08641975308641976,46.66666666666667,0)" xlink:href="#br"/><use transform="matrix(0.08641975308641976,0,0,0.08641975308641976,63.95061728395062,0)" xlink:href="#aB"/></g><g id="X"><use transform="matrix(0.08641975308641976,0,0,0.08641975308641976,0,0)" xlink:href="#bo"/><use transform="matrix(0.08641975308641976,0,0,0.08641975308641976,27.654320987654323,0)" xlink:href="#aB"/><use transform="matrix(0.08641975308641976,0,0,0.08641975308641976,46.580246913580254,0)" xlink:href="#aD"/><use transform="matrix(0.08641975308641976,0,0,0.08641975308641976,56.8641975308642,0)" xlink:href="#aB"/><use transform="matrix(0.08641975308641976,0,0,0.08641975308641976,75.79012345679013,0)" xlink:href="#aE"/></g><g id="Y"><use transform="matrix(0.08024691358024691,0,0,0.08024691358024691,0,0)" xlink:href="#aR"/><use transform="matrix(0.08024691358024691,0,0,0.08024691358024691,20.78395061728395,0)" xlink:href="#aG"/><use transform="matrix(0.08024691358024691,0,0,0.08024691358024691,36.83333333333333,0)" xlink:href="#aI"/></g><g id="Z"><use transform="matrix(0.08024691358024691,0,0,0.08024691358024691,0,0)" xlink:href="#aV"/><use transform="matrix(0.08024691358024691,0,0,0.08024691358024691,17.574074074074073,0)" xlink:href="#aQ"/><use transform="matrix(0.08024691358024691,0,0,0.08024691358024691,36.83333333333333,0)" xlink:href="#bd"/></g><path fill="#333" d="M182-130c37 4 62 22 62 59C244 23 116-4 24 0v-248c84 5 203-23 205 63 0 31-19 50-47 55zM76-148c40-3 101 13 101-30 0-44-60-28-101-31v61zm0 110c48-3 116 14 116-37 0-48-69-32-116-35v72" id="bs"/><path fill="#333" d="M12 0v-35l95-120H19v-35h142v35L67-36h103V0H12" id="bt"/><g id="aa"><use transform="matrix(0.08024691358024691,0,0,0.08024691358024691,0,0)" xlink:href="#bs"/><use transform="matrix(0.08024691358024691,0,0,0.08024691358024691,20.78395061728395,0)" xlink:href="#aJ"/><use transform="matrix(0.08024691358024691,0,0,0.08024691358024691,38.358024691358025,0)" xlink:href="#bt"/><use transform="matrix(0.08024691358024691,0,0,0.08024691358024691,52.80246913580247,0)" xlink:href="#bt"/><use transform="matrix(0.08024691358024691,0,0,0.08024691358024691,67.24691358024691,0)" xlink:href="#aG"/><use transform="matrix(0.08024691358024691,0,0,0.08024691358024691,83.29629629629629,0)" xlink:href="#aE"/></g><g id="ab"><use transform="matrix(0.08641975308641973,0,0,0.08641975308641973,0,0)" xlink:href="#aD"/><use transform="matrix(0.08641975308641973,0,0,0.08641975308641973,10.28395061728395,0)" xlink:href="#aB"/><use transform="matrix(0.08641975308641973,0,0,0.08641975308641973,29.20987654320987,0)" xlink:href="#aM"/><use transform="matrix(0.08641975308641973,0,0,0.08641975308641973,48.13580246913579,0)" xlink:href="#aM"/><use transform="matrix(0.08641975308641973,0,0,0.08641975308641973,67.0617283950617,0)" xlink:href="#aF"/><use transform="matrix(0.08641975308641973,0,0,0.08641975308641973,75.70370370370368,0)" xlink:href="#aG"/></g><path fill="#333" d="M231 0h-52l-39-155L100 0H48L-1-190h46L77-45c9-52 24-97 36-145h53l37 145 32-145h46" id="bu"/><path fill="#333" d="M114-157C55-157 80-60 75 0H25v-261h50l-1 109c12-26 28-41 61-42 86-1 58 113 63 194h-50c-7-57 23-157-34-157" id="bv"/><g id="ac"><use transform="matrix(0.08641975308641973,0,0,0.08641975308641973,0,0)" xlink:href="#bk"/><use transform="matrix(0.08641975308641973,0,0,0.08641975308641973,17.283950617283946,0)" xlink:href="#bu"/><use transform="matrix(0.08641975308641973,0,0,0.08641975308641973,41.48148148148147,0)" xlink:href="#aK"/><use transform="matrix(0.08641975308641973,0,0,0.08641975308641973,50.12345679012345,0)" xlink:href="#aD"/><use transform="matrix(0.08641975308641973,0,0,0.08641975308641973,60.4074074074074,0)" xlink:href="#bj"/><use transform="matrix(0.08641975308641973,0,0,0.08641975308641973,77.69135802469134,0)" xlink:href="#bv"/></g><use transform="matrix(0.08641975308641973,0,0,0.08641975308641973,0,0)" xlink:href="#bb" id="ad"/><use transform="matrix(0.08641975308641973,0,0,0.08641975308641973,0,0)" xlink:href="#aZ" id="ae"/><use transform="matrix(0.08641975308641973,0,0,0.08641975308641973,0,0)" xlink:href="#bh" id="af"/><g id="ag"><use transform="matrix(0.08641975308641973,0,0,0.08641975308641973,0,0)" xlink:href="#bg"/><use transform="matrix(0.08641975308641973,0,0,0.08641975308641973,24.197530864197525,0)" xlink:href="#aE"/><use transform="matrix(0.08641975308641973,0,0,0.08641975308641973,36.29629629629629,0)" xlink:href="#aG"/><use transform="matrix(0.08641975308641973,0,0,0.08641975308641973,53.58024691358023,0)" xlink:href="#aG"/><use transform="matrix(0.08641975308641973,0,0,0.08641975308641973,70.86419753086419,0)" xlink:href="#aC"/></g><g id="ah"><use transform="matrix(0.08641975308641973,0,0,0.08641975308641973,0,0)" xlink:href="#aV"/><use transform="matrix(0.08641975308641973,0,0,0.08641975308641973,18.92592592592592,0)" xlink:href="#aQ"/><use transform="matrix(0.08641975308641973,0,0,0.08641975308641973,39.66666666666666,0)" xlink:href="#bd"/></g><g id="ai"><use transform="matrix(0.0864197530864197,0,0,0.0864197530864197,0,0)" xlink:href="#bs"/><use transform="matrix(0.0864197530864197,0,0,0.0864197530864197,22.382716049382704,0)" xlink:href="#aJ"/><use transform="matrix(0.0864197530864197,0,0,0.0864197530864197,41.30864197530862,0)" xlink:href="#bt"/><use transform="matrix(0.0864197530864197,0,0,0.0864197530864197,56.86419753086416,0)" xlink:href="#bt"/><use transform="matrix(0.0864197530864197,0,0,0.0864197530864197,72.4197530864197,0)" xlink:href="#aG"/><use transform="matrix(0.0864197530864197,0,0,0.0864197530864197,89.70370370370364,0)" xlink:href="#aE"/></g><g id="aj"><use transform="matrix(0.08641975308641976,0,0,0.08641975308641976,0,0)" xlink:href="#aS"/><use transform="matrix(0.08641975308641976,0,0,0.08641975308641976,8.641975308641976,0)" xlink:href="#aC"/><use transform="matrix(0.08641975308641976,0,0,0.08641975308641976,27.567901234567906,0)" xlink:href="#bl"/><use transform="matrix(0.08641975308641976,0,0,0.08641975308641976,37.851851851851855,0)" xlink:href="#aE"/><use transform="matrix(0.08641975308641976,0,0,0.08641975308641976,49.95061728395062,0)" xlink:href="#aN"/><use transform="matrix(0.08641975308641976,0,0,0.08641975308641976,67.23456790123457,0)" xlink:href="#aE"/><use transform="matrix(0.08641975308641976,0,0,0.08641975308641976,79.33333333333334,0)" xlink:href="#aG"/><use transform="matrix(0.08641975308641976,0,0,0.08641975308641976,96.61728395061729,0)" xlink:href="#aI"/></g><path fill="#333" d="M135-194c53 0 70 44 70 98 0 56-19 98-73 100-31 1-45-17-59-34 3 33 2 69 2 105H25l-1-265h48c2 10 0 23 3 31 11-24 29-35 60-35zM114-30c33 0 39-31 40-66 0-38-9-64-40-64-56 0-55 130 0 130" id="bw"/><g id="ak"><use transform="matrix(0.08641975308641976,0,0,0.08641975308641976,0,0)" xlink:href="#aP"/><use transform="matrix(0.08641975308641976,0,0,0.08641975308641976,16.592592592592595,0)" xlink:href="#aG"/><use transform="matrix(0.08641975308641976,0,0,0.08641975308641976,33.876543209876544,0)" xlink:href="#bo"/><use transform="matrix(0.08641975308641976,0,0,0.08641975308641976,61.53086419753087,0)" xlink:href="#bw"/><use transform="matrix(0.08641975308641976,0,0,0.08641975308641976,80.4567901234568,0)" xlink:href="#aG"/><use transform="matrix(0.08641975308641976,0,0,0.08641975308641976,97.74074074074075,0)" xlink:href="#aE"/><use transform="matrix(0.08641975308641976,0,0,0.08641975308641976,109.83950617283952,0)" xlink:href="#aN"/><use transform="matrix(0.08641975308641976,0,0,0.08641975308641976,127.12345679012347,0)" xlink:href="#aD"/><use transform="matrix(0.08641975308641976,0,0,0.08641975308641976,137.40740740740742,0)" xlink:href="#aJ"/><use transform="matrix(0.08641975308641976,0,0,0.08641975308641976,156.33333333333334,0)" xlink:href="#aE"/><use transform="matrix(0.08641975308641976,0,0,0.08641975308641976,168.4320987654321,0)" xlink:href="#aG"/></g><g id="al"><use transform="matrix(0.08641975308641976,0,0,0.08641975308641976,0,0)" xlink:href="#bk"/><use transform="matrix(0.08641975308641976,0,0,0.08641975308641976,17.283950617283953,0)" xlink:href="#aG"/><use transform="matrix(0.08641975308641976,0,0,0.08641975308641976,34.567901234567906,0)" xlink:href="#aC"/><use transform="matrix(0.08641975308641976,0,0,0.08641975308641976,53.49382716049383,0)" xlink:href="#bk"/><use transform="matrix(0.08641975308641976,0,0,0.08641975308641976,70.77777777777779,0)" xlink:href="#aB"/><use transform="matrix(0.08641975308641976,0,0,0.08641975308641976,89.70370370370371,0)" xlink:href="#aE"/></g><path fill="#333" d="M238-95c0 69-44 99-111 99C63 4 22-25 22-93v-155h51v151c-1 38 19 59 55 60 90 1 49-130 58-211h52v153" id="bx"/><g id="am"><use transform="matrix(0.08641975308641976,0,0,0.08641975308641976,0,0)" xlink:href="#bx"/><use transform="matrix(0.08641975308641976,0,0,0.08641975308641976,22.38271604938272,0)" xlink:href="#aF"/><use transform="matrix(0.08641975308641976,0,0,0.08641975308641976,31.024691358024693,0)" xlink:href="#aD"/><use transform="matrix(0.08641975308641976,0,0,0.08641975308641976,41.308641975308646,0)" xlink:href="#aE"/><use transform="matrix(0.08641975308641976,0,0,0.08641975308641976,53.40740740740741,0)" xlink:href="#aN"/><use transform="matrix(0.08641975308641976,0,0,0.08641975308641976,70.69135802469137,0)" xlink:href="#bk"/><use transform="matrix(0.08641975308641976,0,0,0.08641975308641976,87.97530864197532,0)" xlink:href="#aB"/><use transform="matrix(0.08641975308641976,0,0,0.08641975308641976,106.90123456790124,0)" xlink:href="#aC"/><use transform="matrix(0.08641975308641976,0,0,0.08641975308641976,125.82716049382718,0)" xlink:href="#aK"/><use transform="matrix(0.08641975308641976,0,0,0.08641975308641976,134.46913580246914,0)" xlink:href="#bj"/></g><g id="an"><use transform="matrix(0.08641975308641976,0,0,0.08641975308641976,0,0)" xlink:href="#aO"/><use transform="matrix(0.08641975308641976,0,0,0.08641975308641976,20.740740740740744,0)" xlink:href="#aG"/><use transform="matrix(0.08641975308641976,0,0,0.08641975308641976,38.0246913580247,0)" xlink:href="#aC"/><use transform="matrix(0.08641975308641976,0,0,0.08641975308641976,56.95061728395062,0)" xlink:href="#bk"/><use transform="matrix(0.08641975308641976,0,0,0.08641975308641976,74.23456790123457,0)" xlink:href="#aB"/><use transform="matrix(0.08641975308641976,0,0,0.08641975308641976,93.16049382716048,0)" xlink:href="#aE"/></g><g id="ao"><use transform="matrix(0.08641975308641976,0,0,0.08641975308641976,0,0)" xlink:href="#bp"/><use transform="matrix(0.08641975308641976,0,0,0.08641975308641976,20.740740740740744,0)" xlink:href="#aS"/><use transform="matrix(0.08641975308641976,0,0,0.08641975308641976,29.382716049382726,0)" xlink:href="#aR"/></g><g id="ap"><use transform="matrix(0.08641975308641976,0,0,0.08641975308641976,0,0)" xlink:href="#bk"/><use transform="matrix(0.08641975308641976,0,0,0.08641975308641976,17.283950617283953,0)" xlink:href="#aG"/><use transform="matrix(0.08641975308641976,0,0,0.08641975308641976,34.567901234567906,0)" xlink:href="#aC"/><use transform="matrix(0.08641975308641976,0,0,0.08641975308641976,53.49382716049383,0)" xlink:href="#bk"/><use transform="matrix(0.08641975308641976,0,0,0.08641975308641976,70.77777777777779,0)" xlink:href="#aB"/><use transform="matrix(0.08641975308641976,0,0,0.08641975308641976,89.70370370370371,0)" xlink:href="#aE"/></g><g id="aq"><use transform="matrix(0.08641975308641976,0,0,0.08641975308641976,0,0)" xlink:href="#bp"/><use transform="matrix(0.08641975308641976,0,0,0.08641975308641976,20.740740740740744,0)" xlink:href="#aJ"/><use transform="matrix(0.08641975308641976,0,0,0.08641975308641976,39.66666666666667,0)" xlink:href="#bo"/><use transform="matrix(0.08641975308641976,0,0,0.08641975308641976,67.32098765432099,0)" xlink:href="#bw"/></g><use transform="matrix(0.08641975308641976,0,0,0.08641975308641976,0,0)" xlink:href="#bb" id="ar"/><g id="as"><use transform="matrix(0.08641975308641976,0,0,0.08641975308641976,0,0)" xlink:href="#aO"/><use transform="matrix(0.08641975308641976,0,0,0.08641975308641976,20.740740740740744,0)" xlink:href="#aG"/><use transform="matrix(0.08641975308641976,0,0,0.08641975308641976,38.0246913580247,0)" xlink:href="#aE"/><use transform="matrix(0.08641975308641976,0,0,0.08641975308641976,50.12345679012346,0)" xlink:href="#br"/><use transform="matrix(0.08641975308641976,0,0,0.08641975308641976,67.40740740740742,0)" xlink:href="#aB"/></g><g id="at"><use transform="matrix(0.08641975308641976,0,0,0.08641975308641976,0,0)" xlink:href="#aO"/><use transform="matrix(0.08641975308641976,0,0,0.08641975308641976,20.740740740740744,0)" xlink:href="#aG"/><use transform="matrix(0.08641975308641976,0,0,0.08641975308641976,38.0246913580247,0)" xlink:href="#aE"/><use transform="matrix(0.08641975308641976,0,0,0.08641975308641976,50.12345679012346,0)" xlink:href="#br"/><use transform="matrix(0.08641975308641976,0,0,0.08641975308641976,67.40740740740742,0)" xlink:href="#aB"/></g><g id="au"><use transform="matrix(0.08641975308641976,0,0,0.08641975308641976,0,0)" xlink:href="#bo"/><use transform="matrix(0.08641975308641976,0,0,0.08641975308641976,27.654320987654323,0)" xlink:href="#aB"/><use transform="matrix(0.08641975308641976,0,0,0.08641975308641976,46.580246913580254,0)" xlink:href="#aD"/><use transform="matrix(0.08641975308641976,0,0,0.08641975308641976,56.8641975308642,0)" xlink:href="#aB"/><use transform="matrix(0.08641975308641976,0,0,0.08641975308641976,75.79012345679013,0)" xlink:href="#aE"/></g><path fill="#333" d="M147 0L96-86 75-71V0H25v-261h50v150l67-79h53l-66 74L201 0h-54" id="by"/><g id="av"><use transform="matrix(0.08641975308641976,0,0,0.08641975308641976,0,0)" xlink:href="#aV"/><use transform="matrix(0.08641975308641976,0,0,0.08641975308641976,18.925925925925927,0)" xlink:href="#aB"/><use transform="matrix(0.08641975308641976,0,0,0.08641975308641976,37.851851851851855,0)" xlink:href="#bj"/><use transform="matrix(0.08641975308641976,0,0,0.08641975308641976,55.13580246913581,0)" xlink:href="#by"/></g><g id="aw"><use transform="matrix(0.08024691358024691,0,0,0.08024691358024691,0,0)" xlink:href="#bg"/><use transform="matrix(0.08024691358024691,0,0,0.08024691358024691,22.469135802469136,0)" xlink:href="#aE"/><use transform="matrix(0.08024691358024691,0,0,0.08024691358024691,33.7037037037037,0)" xlink:href="#aG"/><use transform="matrix(0.08024691358024691,0,0,0.08024691358024691,49.753086419753096,0)" xlink:href="#aG"/><use transform="matrix(0.08024691358024691,0,0,0.08024691358024691,65.80246913580247,0)" xlink:href="#aC"/></g><g id="ax"><use transform="matrix(0.08024691358024691,0,0,0.08024691358024691,0,0)" xlink:href="#aV"/><use transform="matrix(0.08024691358024691,0,0,0.08024691358024691,17.574074074074073,0)" xlink:href="#aQ"/><use transform="matrix(0.08024691358024691,0,0,0.08024691358024691,36.83333333333333,0)" xlink:href="#bd"/></g><g id="ay"><use transform="matrix(0.0864197530864197,0,0,0.0864197530864197,0,0)" xlink:href="#aR"/><use transform="matrix(0.0864197530864197,0,0,0.0864197530864197,22.382716049382704,0)" xlink:href="#aG"/><use transform="matrix(0.0864197530864197,0,0,0.0864197530864197,39.66666666666664,0)" xlink:href="#aI"/></g><g id="az"><use transform="matrix(0.0864197530864197,0,0,0.0864197530864197,0,0)" xlink:href="#aV"/><use transform="matrix(0.0864197530864197,0,0,0.0864197530864197,18.925925925925917,0)" xlink:href="#aQ"/><use transform="matrix(0.0864197530864197,0,0,0.0864197530864197,39.66666666666664,0)" xlink:href="#bd"/></g></defs></g></svg>